<svg width="535" height="388" viewBox="0 0 535 388" fill="none" xmlns="http://www.w3.org/2000/svg">
<rect width="535" height="388" fill="#E5E5E5"/>
<g id="study" clip-path="url(#clip0_0_1)">
<rect width="534.641" height="387.642" fill="white"/>
<path id="Vector" d="M107.124 367.621C106.295 374.134 103.654 380.196 100.531 386.032C100.249 386.571 99.9591 387.111 99.6611 387.642H47.7694C46.7069 387.151 45.6602 386.612 44.6378 386.032C43.2825 385.262 41.9686 384.421 40.7015 383.512C25.3979 372.492 19.5052 351.65 22.1699 332.981C23.8201 321.373 28.9076 309.531 38.8258 303.284C44.2095 300.006 50.6327 298.882 56.8098 300.136C56.9627 300.16 57.1239 300.201 57.2847 300.233C59.8556 300.729 62.2924 301.764 64.4347 303.269C66.5771 304.775 68.3764 306.717 69.7145 308.967C74.4397 317.364 71.6304 327.765 69.3038 337.111C66.9854 346.457 65.7295 357.647 72.4594 364.538C71.4737 361.656 71.2732 358.564 71.8785 355.578C72.4837 352.593 73.8729 349.823 75.9033 347.552C77.9336 345.282 80.5319 343.593 83.4311 342.659C86.3303 341.725 89.426 341.58 92.3998 342.239C92.8908 342.344 93.366 342.464 93.8408 342.609C94.9841 342.939 96.0861 343.398 97.1254 343.978C105.055 348.405 108.267 358.613 107.124 367.621Z" fill="#59DCBE"/>
<path id="Vector_2" d="M70.7211 386.032C72.0009 386.619 73.3023 387.156 74.6251 387.642H70.938C69.8193 387.143 68.7164 386.611 67.6295 386.032C62.3111 383.284 57.5846 379.517 53.7189 374.946C51.3536 372.125 49.4218 368.967 47.987 365.576C46.4287 361.742 45.4388 357.701 45.0488 353.581C44.3338 345.067 44.9038 336.495 46.7394 328.151C48.4613 319.547 51.2466 311.191 55.031 303.275C55.4818 302.325 55.9567 301.384 56.4398 300.45C56.4726 300.372 56.5232 300.303 56.5875 300.249C56.6518 300.194 56.728 300.155 56.81 300.136C56.8916 300.118 56.9759 300.118 57.0576 300.134C57.1394 300.151 57.2167 300.184 57.2849 300.232C57.4528 300.327 57.5776 300.483 57.6331 300.668C57.6887 300.852 57.6707 301.051 57.5829 301.223C53.6794 308.826 50.7245 316.88 48.7843 325.204C46.7772 333.364 45.8969 341.761 46.1679 350.16C46.5138 357.952 48.5508 365.624 53.1796 372C57.4868 377.795 63.1508 382.445 69.6743 385.541C70.0206 385.71 70.3665 385.871 70.7211 386.032Z" fill="white"/>
<path id="Vector_3" d="M92.594 386.031C92.9482 386.579 93.3263 387.118 93.7371 387.642H92.0225C91.644 387.118 91.2898 386.579 90.9435 386.031C88.2654 381.807 86.4107 377.115 85.4774 372.201C83.9801 364.046 85.1487 355.626 88.8103 348.187C89.8297 346.103 91.0312 344.112 92.4006 342.238C92.8916 342.343 93.3668 342.464 93.8416 342.609C90.2356 347.384 87.8108 352.946 86.7655 358.838C85.4333 366.594 86.5856 374.573 90.0579 381.636C90.7976 383.16 91.6451 384.629 92.594 386.031V386.031Z" fill="white"/>
<path id="Vector_4" d="M533.642 24.3701H364.642C364.376 24.3701 364.122 24.2647 363.934 24.0772C363.747 23.8897 363.642 23.6353 363.642 23.3701C363.642 23.1049 363.747 22.8505 363.934 22.663C364.122 22.4755 364.376 22.3701 364.642 22.3701H533.642C533.907 22.3701 534.161 22.4755 534.349 22.663C534.536 22.8505 534.642 23.1049 534.642 23.3701C534.642 23.6353 534.536 23.8897 534.349 24.0772C534.161 24.2647 533.907 24.3701 533.642 24.3701Z" fill="#3F3D56"/>
<path id="Vector_5" d="M479 14H422C420.939 14 419.922 13.5786 419.172 12.8284C418.421 12.0783 418 11.0609 418 10C418 8.93913 418.421 7.92172 419.172 7.17157C419.922 6.42142 420.939 6 422 6H479C480.061 6 481.078 6.42142 481.828 7.17157C482.579 7.92172 483 8.93913 483 10C483 11.0609 482.579 12.0783 481.828 12.8284C481.078 13.5786 480.061 14 479 14Z" fill="#CCCCCC"/>
<path id="Vector_6" d="M419.006 197.894C418.599 197.379 418.314 196.777 418.174 196.135C418.034 195.493 418.043 194.827 418.199 194.189C421.929 178.567 421.928 162.286 418.199 146.664C418.043 146.025 418.034 145.36 418.174 144.718C418.314 144.076 418.599 143.474 419.006 142.959C419.405 142.45 419.915 142.04 420.496 141.758C421.077 141.476 421.716 141.331 422.362 141.333H462.234C463.253 141.335 464.238 141.698 465.014 142.359C465.79 143.019 466.306 143.933 466.471 144.939C469.072 161.831 469.072 179.022 466.471 195.914C466.306 196.919 465.79 197.834 465.014 198.494C464.238 199.154 463.253 199.518 462.234 199.52H422.362C421.716 199.522 421.078 199.376 420.496 199.095C419.915 198.813 419.405 198.402 419.006 197.894V197.894Z" fill="#CFB7B7"/>
<path id="Vector_7" d="M473.437 129.314C470.836 112.422 470.836 95.2314 473.437 78.3391C473.602 77.3337 474.118 76.4195 474.894 75.7591C475.67 75.0988 476.655 74.7353 477.674 74.7334H517.546C518.192 74.7314 518.831 74.8768 519.412 75.1586C519.993 75.4404 520.503 75.8512 520.902 76.3597C521.309 76.8751 521.594 77.4767 521.734 78.1186C521.873 78.7606 521.865 79.426 521.709 80.0642C517.979 95.6864 517.979 111.967 521.709 127.589C521.865 128.228 521.873 128.893 521.734 129.535C521.594 130.177 521.309 130.779 520.902 131.294C520.503 131.802 519.993 132.213 519.412 132.495C518.831 132.777 518.192 132.922 517.546 132.92H477.674C476.655 132.918 475.67 132.555 474.894 131.894C474.118 131.234 473.602 130.32 473.437 129.314V129.314Z" fill="#6C63FF"/>
<path id="Vector_8" d="M383.376 114.206C382.962 113.682 382.673 113.071 382.53 112.418C382.388 111.765 382.397 111.089 382.555 110.44C386.347 94.5613 386.347 78.013 382.555 62.1342C382.397 61.4853 382.388 60.8089 382.53 60.1563C382.673 59.5037 382.962 58.8922 383.376 58.3682C383.782 57.8515 384.299 57.4342 384.89 57.1478C385.481 56.8615 386.13 56.7138 386.787 56.7158H427.314C428.349 56.7178 429.351 57.0872 430.139 57.7584C430.928 58.4295 431.453 59.3588 431.62 60.3808C434.264 77.5506 434.264 95.0238 431.62 112.194C431.453 113.216 430.928 114.145 430.139 114.816C429.351 115.487 428.349 115.857 427.314 115.859H386.787C386.13 115.861 385.481 115.713 384.89 115.426C384.299 115.14 383.781 114.723 383.376 114.206V114.206Z" fill="#6C63FF"/>
<path id="Vector_9" d="M419.493 78.5376H398.144C397.348 78.5367 396.586 78.2204 396.023 77.658C395.461 77.0955 395.144 76.333 395.144 75.5376V74.2637C395.144 73.4683 395.461 72.7057 396.023 72.1433C396.586 71.5809 397.348 71.2645 398.144 71.2637H419.493C420.288 71.2645 421.051 71.5809 421.613 72.1433C422.176 72.7057 422.492 73.4683 422.493 74.2637V75.5376C422.492 76.333 422.176 77.0955 421.613 77.658C421.051 78.2204 420.288 78.5367 419.493 78.5376Z" fill="white"/>
<path id="Vector_10" d="M419.493 91.0854H398.144C397.348 91.0846 396.586 90.7682 396.023 90.2058C395.461 89.6434 395.144 88.8808 395.144 88.0854V86.8115C395.144 86.0161 395.461 85.2536 396.023 84.6912C396.586 84.1287 397.348 83.8124 398.144 83.8115H419.493C420.288 83.8124 421.051 84.1287 421.613 84.6912C422.176 85.2536 422.492 86.0161 422.493 86.8115V88.0854C422.492 88.8808 422.176 89.6434 421.613 90.2058C421.051 90.7682 420.288 91.0846 419.493 91.0854V91.0854Z" fill="white"/>
<path id="Vector_11" d="M454.034 160.759H433.11C432.315 160.758 431.552 160.442 430.99 159.88C430.428 159.317 430.111 158.555 430.11 157.759V156.587C430.111 155.792 430.428 155.029 430.99 154.467C431.552 153.904 432.315 153.588 433.11 153.587H454.034C454.829 153.588 455.592 153.904 456.154 154.467C456.716 155.029 457.033 155.792 457.034 156.587V157.759C457.033 158.555 456.716 159.317 456.154 159.88C455.592 160.442 454.829 160.758 454.034 160.759V160.759Z" fill="white"/>
<path id="Vector_12" d="M454.034 175.573H433.11C432.315 175.572 431.552 175.256 430.99 174.693C430.428 174.131 430.111 173.368 430.11 172.573V171.4C430.111 170.605 430.428 169.842 430.99 169.28C431.552 168.718 432.315 168.401 433.11 168.4H454.034C454.829 168.401 455.592 168.718 456.154 169.28C456.716 169.842 457.033 170.605 457.034 171.4V172.573C457.033 173.368 456.716 174.131 456.154 174.693C455.592 175.256 454.829 175.572 454.034 175.573V175.573Z" fill="white"/>
<path id="Vector_13" d="M454.034 190.386H433.11C432.315 190.385 431.552 190.069 430.99 189.507C430.428 188.944 430.111 188.182 430.11 187.386V186.214C430.111 185.418 430.428 184.656 430.99 184.094C431.552 183.531 432.315 183.215 433.11 183.214H454.034C454.829 183.215 455.592 183.531 456.154 184.094C456.716 184.656 457.033 185.418 457.034 186.214V187.386C457.033 188.182 456.716 188.944 456.154 189.507C455.592 190.069 454.829 190.385 454.034 190.386V190.386Z" fill="white"/>
<path id="Vector_14" d="M506.005 100.645H485.081C484.286 100.644 483.523 100.328 482.961 99.7654C482.398 99.203 482.082 98.4404 482.081 97.645V96.4727C482.082 95.6773 482.398 94.9147 482.961 94.3523C483.523 93.7899 484.286 93.4735 485.081 93.4727H506.005C506.8 93.4735 507.563 93.7899 508.125 94.3523C508.687 94.9147 509.004 95.6773 509.005 96.4727V97.645C509.004 98.4404 508.687 99.203 508.125 99.7654C507.563 100.328 506.8 100.644 506.005 100.645Z" fill="white"/>
<path id="Vector_15" d="M141.736 286.928V288.928C141.739 292.242 143.057 295.42 145.401 297.763C147.744 300.107 150.922 301.425 154.236 301.428H244.236C247.551 301.427 250.73 300.109 253.074 297.765C255.418 295.421 256.735 292.243 256.736 288.928V286.928C256.743 284.003 255.715 281.169 253.836 278.928C253.211 278.183 252.503 277.513 251.726 276.928C251.726 276.928 202.246 275.808 202.246 274.428H154.236C150.923 274.432 147.746 275.751 145.403 278.094C143.059 280.437 141.741 283.614 141.736 286.928Z" fill="#774D4D"/>
<path id="Vector_16" d="M206.459 300.932H193.459V384.932H206.459V300.932Z" fill="#2867B2"/>
<path id="Vector_17" d="M243.46 384.475C243.46 385.88 223.76 385.018 199.46 385.018C175.159 385.018 155.46 385.88 155.46 384.475C155.46 383.07 175.159 371.932 199.46 371.932C223.76 371.932 243.46 383.07 243.46 384.475Z" fill="#59DCBE"/>
<path id="Vector_18" d="M225.586 285.231C226.524 283.972 227.175 282.522 227.493 280.984C227.811 279.446 227.787 277.857 227.424 276.329C227.061 274.801 226.367 273.371 225.392 272.14C224.417 270.909 223.183 269.907 221.779 269.205L194.226 175.319L173.245 185.595L206.926 274.65C205.902 277.088 205.808 279.817 206.661 282.319C207.514 284.822 209.256 286.925 211.556 288.229C213.856 289.533 216.555 289.948 219.141 289.396C221.726 288.843 224.02 287.362 225.586 285.231H225.586Z" fill="#A0616A"/>
<path id="Vector_19" d="M200.469 190.998L176.986 197.355C176.318 197.536 175.619 197.571 174.936 197.457C174.253 197.343 173.603 197.084 173.029 196.696C172.456 196.308 171.973 195.801 171.613 195.21C171.253 194.619 171.025 193.957 170.944 193.27L168.106 169.182C167.199 165.758 167.688 162.115 169.464 159.051C171.24 155.987 174.159 153.752 177.58 152.836C181.001 151.921 184.646 152.4 187.715 154.168C190.784 155.935 193.026 158.848 193.951 162.267L203.625 184.423C203.902 185.057 204.039 185.744 204.026 186.436C204.014 187.128 203.852 187.809 203.553 188.433C203.253 189.057 202.822 189.609 202.29 190.052C201.758 190.495 201.137 190.817 200.469 190.998V190.998Z" fill="#6C63FF"/>
<path id="Vector_20" d="M231.724 374.629L243.983 374.628L249.816 342.832H231.722L231.724 374.629Z" fill="#A0616A"/>
<path id="Vector_21" d="M228.597 370.626L252.74 370.625H252.741C254.762 370.625 256.763 371.023 258.63 371.796C260.496 372.569 262.193 373.703 263.621 375.131C265.05 376.56 266.184 378.256 266.957 380.123C267.73 381.99 268.128 383.991 268.128 386.011V386.511L228.597 386.513L228.597 370.626Z" fill="#2F2E41"/>
<path id="Vector_22" d="M245.954 357.578C245.812 357.578 245.668 357.571 245.524 357.558L228.558 356.322C227.871 356.259 227.209 356.038 226.622 355.678C226.034 355.318 225.537 354.828 225.169 354.245C224.801 353.663 224.572 353.003 224.499 352.318C224.426 351.633 224.511 350.94 224.748 350.293L247.455 299.278C247.617 298.824 247.683 298.34 247.65 297.858C247.616 297.377 247.483 296.907 247.259 296.48C247.035 296.047 246.722 295.666 246.341 295.363C245.96 295.06 245.519 294.84 245.047 294.72C234.37 291.929 206.975 284.497 183.261 275.802C173.101 272.076 166.702 266.692 164.242 259.8C160.999 250.713 165.797 242.426 166.003 242.078L166.164 241.806L188.478 243.834L212.669 245.892L265.683 274.319C270.125 276.722 273.499 280.709 275.133 285.487C276.768 290.266 276.542 295.484 274.502 300.104L250.061 354.911C249.707 355.705 249.131 356.379 248.402 356.853C247.674 357.326 246.823 357.578 245.954 357.578V357.578Z" fill="#2F2E41"/>
<path id="Vector_23" d="M192.358 142.905C205.923 142.905 216.919 131.909 216.919 118.344C216.919 104.78 205.923 93.7832 192.358 93.7832C178.793 93.7832 167.797 104.78 167.797 118.344C167.797 131.909 178.793 142.905 192.358 142.905Z" fill="#A0616A"/>
<path id="Vector_24" d="M224.724 373.629L236.983 373.628L242.816 341.832H224.722L224.724 373.629Z" fill="#A0616A"/>
<path id="Vector_25" d="M221.597 369.626L245.74 369.625H245.741C247.762 369.625 249.763 370.023 251.63 370.796C253.496 371.569 255.193 372.703 256.621 374.131C258.05 375.56 259.184 377.256 259.957 379.123C260.73 380.99 261.128 382.991 261.128 385.011V385.511L221.597 385.513L221.597 369.626Z" fill="#2F2E41"/>
<path id="Vector_26" d="M238.954 360.578C238.812 360.578 238.668 360.571 238.524 360.558L221.558 359.322C220.871 359.259 220.209 359.038 219.622 358.678C219.034 358.318 218.537 357.828 218.169 357.245C217.801 356.663 217.572 356.003 217.499 355.318C217.426 354.633 217.511 353.94 217.748 353.293L240.455 302.278C240.617 301.824 240.683 301.34 240.65 300.858C240.616 300.377 240.483 299.907 240.259 299.48C240.035 299.047 239.722 298.666 239.341 298.363C238.96 298.06 238.519 297.84 238.047 297.72C227.37 294.929 199.975 287.497 176.261 278.802C166.101 275.076 159.702 269.692 157.242 262.8C153.999 253.713 158.797 245.426 159.003 245.078L159.164 244.806L181.478 246.834L205.669 248.892L258.683 277.319C263.125 279.722 266.499 283.709 268.133 288.487C269.768 293.266 269.542 298.484 267.502 303.104L243.061 357.911C242.707 358.705 242.131 359.379 241.402 359.853C240.674 360.326 239.823 360.578 238.954 360.578V360.578Z" fill="#2F2E41"/>
<path id="Vector_27" d="M199.933 156.832L173.933 147.832C173.933 147.832 157.611 160.372 165.452 191.481C169.545 207.534 168.353 224.479 162.052 239.801C161.293 241.697 160.418 243.544 159.433 245.332C159.433 245.332 188.433 280.332 215.433 254.332L204.933 203.832C204.933 203.832 221.433 170.332 199.933 156.832Z" fill="#6C63FF"/>
<path id="Vector_28" d="M195.407 143.741C191.912 138.508 189.153 131.253 193.002 126.275C196.801 121.36 204.294 122.084 210.112 119.91C218.216 116.881 222.916 107.361 221.45 98.8343C219.984 90.308 213.14 83.2399 204.986 80.3479C196.833 77.4559 187.638 78.3964 179.653 81.7268C169.824 85.8265 161.392 93.7571 157.856 103.803C154.321 113.849 156.211 125.911 163.546 133.633C171.409 141.911 183.751 144.117 195.168 143.983" fill="#2F2E41"/>
<path id="Vector_29" d="M172.56 99.1078C168.156 102.694 161.435 101.101 156.707 97.954C151.979 94.8069 148.142 90.3257 143.026 87.8583C134.007 83.5083 123.102 86.4001 114.324 91.2184C105.546 96.0367 97.765 102.693 88.4929 106.475C79.2208 110.256 67.3889 110.443 60.368 103.303C58.6403 108.309 58.4991 113.726 59.9636 118.815C61.4282 123.904 64.4272 128.417 68.5515 131.739C72.6758 135.061 77.7245 137.029 83.0088 137.375C88.2931 137.722 93.5555 136.429 98.0781 133.674C108.238 127.486 113.849 114.511 125.244 111.095C131.55 109.205 138.32 110.727 144.693 112.376C151.066 114.025 157.711 115.806 164.142 114.403C170.574 112.999 176.589 107.22 175.771 100.688L172.56 99.1078Z" fill="#2F2E41"/>
<path id="Vector_30" d="M252.514 328.534C249.913 311.642 249.913 294.451 252.514 277.559C252.679 276.553 253.195 275.639 253.971 274.979C254.747 274.319 255.732 273.955 256.751 273.953H296.623C297.27 273.951 297.908 274.097 298.489 274.378C299.071 274.66 299.58 275.071 299.979 275.579C300.386 276.095 300.671 276.696 300.811 277.338C300.951 277.98 300.942 278.646 300.786 279.284C297.056 294.906 297.056 311.187 300.786 326.809C300.942 327.447 300.951 328.113 300.811 328.755C300.671 329.397 300.386 329.998 299.979 330.514C299.58 331.022 299.071 331.433 298.489 331.715C297.908 331.997 297.27 332.142 296.623 332.14H256.751C255.732 332.138 254.747 331.774 253.971 331.114C253.195 330.454 252.679 329.54 252.514 328.534V328.534Z" fill="#FF6584"/>
<path id="Vector_31" d="M284.354 298.63H263.431C262.635 298.629 261.873 298.313 261.31 297.75C260.748 297.188 260.432 296.425 260.431 295.63V294.458C260.432 293.663 260.748 292.9 261.31 292.338C261.873 291.775 262.635 291.459 263.431 291.458H284.354C285.15 291.459 285.912 291.775 286.475 292.338C287.037 292.9 287.353 293.663 287.354 294.458V295.63C287.353 296.425 287.037 297.188 286.475 297.75C285.912 298.313 285.15 298.629 284.354 298.63V298.63Z" fill="white"/>
<path id="Vector_32" d="M284.354 310.975H263.431C262.635 310.974 261.873 310.658 261.31 310.095C260.748 309.533 260.432 308.77 260.431 307.975V306.803C260.432 306.007 260.748 305.245 261.31 304.682C261.873 304.12 262.635 303.804 263.431 303.803H284.354C285.15 303.804 285.912 304.12 286.475 304.682C287.037 305.245 287.353 306.007 287.354 306.803V307.975C287.353 308.77 287.037 309.533 286.475 310.095C285.912 310.658 285.15 310.974 284.354 310.975V310.975Z" fill="white"/>
<path id="Vector_33" d="M263 280.732C263.594 279.278 263.862 277.712 263.785 276.143C263.709 274.574 263.289 273.042 262.555 271.653C261.822 270.264 260.793 269.053 259.542 268.105C258.29 267.156 256.845 266.494 255.309 266.165L205.174 182.141L187.426 197.332L242.288 275.148C241.905 277.765 242.496 280.43 243.947 282.641C245.399 284.851 247.611 286.451 250.164 287.14C252.717 287.828 255.434 287.556 257.799 286.375C260.165 285.194 262.016 283.186 263 280.732V280.732Z" fill="#A0616A"/>
<path id="Vector_34" d="M215.135 195.763L193.985 207.785C193.384 208.127 192.715 208.336 192.026 208.396C191.336 208.457 190.642 208.368 189.99 208.136C189.337 207.903 188.743 207.533 188.247 207.051C187.751 206.568 187.364 205.984 187.114 205.339L178.348 182.724C176.616 179.636 176.179 175.986 177.134 172.576C178.088 169.166 180.356 166.274 183.439 164.533C186.523 162.792 190.171 162.345 193.584 163.289C196.997 164.234 199.896 166.493 201.646 169.571L216.548 188.607C216.975 189.153 217.279 189.783 217.44 190.457C217.601 191.13 217.614 191.83 217.48 192.509C217.346 193.188 217.067 193.83 216.662 194.392C216.258 194.953 215.737 195.421 215.135 195.763V195.763Z" fill="#6C63FF"/>
<path id="Vector_35" d="M383 385.642C383 385.773 382.975 385.903 382.925 386.025C382.875 386.146 382.801 386.257 382.708 386.35C382.615 386.443 382.505 386.516 382.383 386.566C382.262 386.617 382.131 386.642 382 386.642H1C0.734784 386.642 0.480414 386.536 0.292877 386.349C0.105341 386.161 0 385.907 0 385.642C0 385.376 0.105341 385.122 0.292877 384.935C0.480414 384.747 0.734784 384.642 1 384.642H382C382.131 384.641 382.262 384.667 382.383 384.717C382.505 384.767 382.615 384.841 382.708 384.933C382.801 385.026 382.875 385.137 382.925 385.258C382.975 385.38 383 385.51 383 385.642Z" fill="#3F3D56"/>
</g>
<defs>
<clipPath id="clip0_0_1">
<rect width="534.641" height="387.642" fill="white"/>
</clipPath>
</defs>
</svg>
